<svg width="801" height="686" viewBox="0 0 801 686" fill="none" xmlns="http://www.w3.org/2000/svg">
<path d="M614.287 399.99H585.713C581.539 399.99 578.115 401.327 575.45 404.014C572.764 406.684 571.427 410.107 571.427 414.276V557.131C571.427 576.775 564.438 593.588 550.451 607.578C536.464 621.564 519.646 628.552 500.002 628.552H128.569C108.926 628.552 92.1093 621.564 78.1194 607.578C64.1327 593.589 57.1401 576.777 57.1401 557.131V185.703C57.1401 166.061 64.1311 149.25 78.1194 135.262C92.1093 121.272 108.926 114.281 128.569 114.281H442.851C447.024 114.281 450.448 112.938 453.124 110.262C455.799 107.584 457.136 104.164 457.136 99.9937V71.4182C457.136 67.2558 455.799 63.8299 453.124 61.1561C450.448 58.4775 447.024 57.1406 442.851 57.1406H128.569C93.1554 57.1406 62.8708 69.7154 37.7181 94.8634C12.5748 120.01 0 150.294 0 185.708V557.138C0 592.549 12.5748 622.839 37.7197 647.977C62.8724 673.127 93.1569 685.708 128.57 685.708H500.002C535.413 685.708 565.701 673.127 590.851 647.977C616.002 622.839 628.577 592.551 628.577 557.138V414.287C628.577 410.113 627.238 406.689 624.552 404.014C621.873 401.327 618.449 399.99 614.287 399.99Z" fill="#FF6600"/>
<path d="M791.514 8.48118C785.858 2.8255 779.153 0 771.421 0H542.851C535.114 0 528.414 2.8255 522.763 8.48118C517.107 14.1337 514.276 20.8308 514.276 28.5692C514.276 36.3077 517.107 43.0063 522.763 48.662L601.331 127.232L310.265 418.305C307.284 421.28 305.799 424.705 305.799 428.567C305.799 432.443 307.289 435.866 310.265 438.842L361.158 489.729C364.134 492.704 367.558 494.188 371.426 494.188C375.295 494.188 378.721 492.706 381.695 489.729L672.763 198.66L751.337 277.23C756.988 282.886 763.687 285.714 771.426 285.714C779.164 285.714 785.863 282.886 791.52 277.23C797.176 271.576 800.001 264.88 800.001 257.142V28.5692C799.999 20.8261 797.165 14.1337 791.514 8.48118Z" fill="#FF6600"/>
</svg>
